<?xml version="1.0" encoding="utf-8"?>
<!-- Generator: Adobe Illustrator 16.0.0, SVG Export Plug-In . SVG Version: 6.00 Build 0)  -->
<!DOCTYPE svg PUBLIC "-//W3C//DTD SVG 1.1//EN" "http://www.w3.org/Graphics/SVG/1.1/DTD/svg11.dtd">
<svg version="1.1" id="图层_1" xmlns="http://www.w3.org/2000/svg" xmlns:xlink="http://www.w3.org/1999/xlink" x="0px" y="0px"
	 width="36.85px" height="42.52px" viewBox="0 0 36.85 42.52" enable-background="new 0 0 36.85 42.52" xml:space="preserve">
<g>
	<circle fill="#FFFFFF" cx="18.423" cy="17.739" r="13.292"/>
	<g>
		<path fill="#F6CB9B" d="M29.4,27.591c-0.301-2.92-2.768-5.201-5.768-5.201h-2.719c-0.344,0-0.623-0.277-0.623-0.624v-0.294
			c0-0.268,0.174-0.495,0.422-0.588c2.652-0.998,4.469-5.349,4.1-8.425c-0.348-2.902-2.707-5.241-5.613-5.566
			c-0.235-0.026-0.47-0.039-0.701-0.04c-0.008,0-0.015-0.001-0.021-0.001c-3.54-0.008-6.412,2.859-6.412,6.397
			c0,2.753,1.739,6.744,4.179,7.646c0.239,0.088,0.391,0.326,0.391,0.581v0.29c0,0.346-0.279,0.624-0.624,0.624h-2.718
			c-3,0-5.467,2.281-5.768,5.201c2.389,3.482,6.395,5.77,10.938,5.77C23.005,33.36,27.011,31.073,29.4,27.591z"/>
		<path fill="#6B5B4B" d="M20.515,9.873c1.697,0.467,3.297,1.511,4.32,2.889c-0.008-0.101-0.012-0.204-0.023-0.303
			c-0.348-2.901-2.707-5.241-5.613-5.566c-0.235-0.026-0.47-0.039-0.701-0.04c-0.008,0-0.015-0.001-0.021-0.001
			c-3.162-0.007-5.786,2.283-6.311,5.293h0.002c0.082,0.115,0.161,0.232,0.249,0.343c0.031-0.04,0.064-0.08,0.097-0.118
			c0.915-1.087,2.442-1.339,3.741-0.764c0.395,0.175,0.833,0.272,1.293,0.272C18.893,11.879,20.041,11.048,20.515,9.873z"/>
		<path fill="#545E7D" d="M29.4,27.591c-0.301-2.92-2.768-5.201-5.768-5.201h-1.514l-3.657,3.658l-3.656-3.658h-1.514
			c-3,0-5.467,2.281-5.768,5.201c2.389,3.482,6.395,5.77,10.938,5.77C23.005,33.36,27.011,31.073,29.4,27.591z"/>
		<path fill="#414A5F" d="M24.861,31.712c0.313-0.174,0.617-0.361,0.914-0.559v-2.82h-0.914V31.712z"/>
		<path fill="#414A5F" d="M12.064,31.712v-3.379h-0.915v2.82C11.447,31.351,11.75,31.538,12.064,31.712z"/>
	</g>
	<path fill="#B2B7C4" d="M18.423,31.031c-7.341,0-13.291-5.951-13.291-13.292c0-7.341,5.95-13.292,13.291-13.292
		c7.343,0,13.292,5.952,13.292,13.292C31.715,25.08,25.766,31.031,18.423,31.031z M18.423,0.033
		c-9.779,0-17.705,7.926-17.705,17.706c0,8.266,5.666,15.209,13.326,17.158l4.379,7.588l4.382-7.588
		c7.659-1.949,13.324-8.893,13.324-17.158C36.129,7.959,28.203,0.033,18.423,0.033z"/>
</g>
</svg>
